PathFileType	4	(X/Y/Z)	Patient4_TMGait_0pt8_01_right_15.trc.trc
DataRate	CameraRate	NumFrames	NumMarkers	Units	OrigDataRate	OrigDataStartFrame	OrigNumFrames
86.419753086420	86.419753086420	6	33	mm	86.419753086420	89	       141
Frame#	Time	Sacral			L.Shoulder			Chest			R.Shoulder			Neck			R.ASIS			L.ASIS			R.Thigh.Superior			R.Thigh.Lateral			R.Thigh.Inferior			R.Patella			L.Thigh.Superior			L.Thigh.Lateral			L.Thigh.Inferior			L.Patella			L.Shank.Superior			L.Shank.Lateral			L.Shank.Inferior			R.Shank.Superior			R.Shank.Lateral			R.Shank.Inferior			R.Heel			R.Midfoot.Superior			R.Midfoot.Lateral			R.Toe			L.Heel			L.Midfoot.Lateral			L.Midfoot.Superior			L.Toe			L.Elbow			L.Wrist			R.Elbow			R.Wrist			
		X1	Y1	Z1	X2	Y2	Z2	X3	Y3	Z3	X4	Y4	Z4	X5	Y5	Z5	X6	Y6	Z6	X7	Y7	Z7	X8	Y8	Z8	X9	Y9	Z9	X10	Y10	Z10	X11	Y11	Z11	X12	Y12	Z12	X13	Y13	Z13	X14	Y14	Z14	X15	Y15	Z15	X16	Y16	Z16	X17	Y17	Z17	X18	Y18	Z18	X19	Y19	Z19	X20	Y20	Z20	X21	Y21	Z21	X22	Y22	Z22	X23	Y23	Z23	X24	Y24	Z24	X25	Y25	Z25	X26	Y26	Z26	X27	Y27	Z27	X28	Y28	Z28	X29	Y29	Z29	X30	Y30	Z30	X31	Y31	Z31	X32	Y32	Z32	X33	Y33	Z33	

89	17.578285714286	926.556625602251	1004.410305806515	440.642581739521	1085.640797529581	1428.484616379099	264.636524687243	1195.167885361541	1364.004592943750	423.759719761129	1113.550555037865	1437.098314485449	599.370626372547	1072.936232048978	1490.739214433454	421.032324883841	1145.651993978342	934.347195211168	563.359369033007	1144.346537181436	956.481263470237	290.447031843927	1165.794736128791	723.418100426451	549.511071465982	1069.350834687543	622.805994168756	607.861321364262	1149.611483567035	555.033992228824	541.775360741886	1127.119844234725	447.376869720184	561.269641663508	1213.495316517824	762.759239217432	327.488050245419	1145.493464105915	634.642448101749	263.297255368207	1238.820836830657	569.218574129761	330.930213748573	1249.132340152567	498.607065094196	340.908919914074	1224.688721427335	422.986546696170	333.224719911814	1142.415406230492	304.388447770024	281.697685349192	1195.828090981996	195.985769985016	353.918510879134	1042.683472159716	387.221245709140	562.108136288578	915.056474974968	360.175438313693	615.194128063178	894.240763450718	252.097333605926	565.381609160883	689.659652876605	205.414782234831	523.491274771405	849.899412902947	134.384665472542	575.959327624316	737.253546266131	137.760543239376	597.010649349699	903.390316568748	29.941669401529	598.100294405689	1072.270992530294	38.776636768023	394.243637824337	1146.530917073297	36.766362932128	313.576147289099	1229.180110535238	97.696766924766	342.168523439296	1357.805461068183	46.272781057922	313.384219061797	986.902353832385	1087.790240318784	165.327918037759	983.614470821152	827.270170731569	180.534472578809	1176.164287996189	1098.162808760165	724.308813736834	1422.391085159378	1107.199872581168	671.620349883365	
90	17.589857142857	926.104265297131	1005.076734157926	438.351853868629	1087.051532211668	1429.575901624116	262.829207214556	1195.345863008687	1364.978209944797	422.695198696830	1112.330853261834	1437.775693265246	597.852717052286	1073.150109031956	1491.737834827438	419.162183194719	1145.315029884747	935.416450654354	561.400473801038	1144.174456658309	957.408304409054	288.552945913721	1171.646442596322	726.272589528820	547.714817132314	1078.979658705301	623.290867874869	606.633405189116	1161.007680731357	557.319085411718	540.139937976774	1140.312619370561	448.240608715671	560.076762840214	1211.563968087324	761.595760132887	324.180969035751	1141.054541966639	634.570336822065	261.455880255843	1233.626442965007	568.063294112375	328.807203124958	1242.967517003604	497.621165799049	339.038617590861	1218.051243684643	422.187187074701	331.714423270548	1134.921152439116	304.024113646652	280.701576855511	1187.374251777264	195.494409245821	353.356924407009	1054.137958632703	388.850106945914	560.941239783982	925.566721179224	365.893161492618	614.155541544167	901.366678141206	258.529352300522	564.663731117755	696.362761345960	221.013239594804	522.692225308203	852.655876792571	141.276872136680	575.449397589140	740.141505142610	150.572942524771	596.315676110603	900.107992799859	30.514680815278	597.989520120137	1062.949325107859	38.768909942576	394.162419641580	1137.198455649047	36.661293257392	313.500666945827	1219.981458093233	97.503653908827	342.067722592821	1348.599698103691	45.705144136005	313.326153051602	996.344930761311	1086.599507232298	160.720025019526	1003.929641983016	826.057041926207	173.923906490161	1162.514679366797	1095.829473980805	721.946708526172	1409.760699268184	1088.531850481854	672.484052931344	
91	17.601428571429	925.398144150655	1005.693815624213	436.174893777312	1088.364573017369	1430.561211901407	261.149213162005	1195.369897332759	1365.835881960552	421.779378812443	1110.955540458921	1438.348554967647	596.477933423658	1073.289351289003	1492.681726701392	417.428597146756	1144.776109592612	936.446200348216	559.612682141121	1143.741900616694	958.267291083989	286.761994122886	1177.344853242865	729.478928678257	545.750450544136	1088.716344623024	624.213168591890	605.417522221459	1172.324585445045	560.186200781924	538.322860938761	1153.738361165017	449.771256418869	558.653857338590	1209.298327301561	760.470740281245	321.086039136630	1136.423614220679	634.590181461985	259.679299307995	1228.178257223392	566.964590755343	326.753126665121	1236.536525410166	496.685180660076	337.204502384023	1211.203118621125	421.460058861372	330.234506556586	1127.280379447054	303.702702516731	279.688754430553	1178.874625225338	195.064512230078	352.777829868037	1066.077264075279	390.958758825107	559.608022160302	936.781542193634	371.576224904705	612.941291560296	909.561081482070	264.980234161566	563.646318210166	704.430920835846	235.482315292467	521.710176175482	857.010527475013	148.337812517848	574.458737119918	744.877614840081	162.799856489912	595.426677963707	899.161915452112	32.008641678270	597.460036193234	1053.631064652575	38.783966749529	394.048782549143	1127.871417362777	36.568140114272	313.404848056147	1210.778977444625	97.326149026011	341.936003506054	1339.385303213686	45.183870218264	313.252133414328	1006.201930681404	1085.514658859529	156.097079075318	1025.078784913332	825.425037725663	167.380036559182	1148.904162574929	1093.849254004308	719.384965536696	1396.045732547071	1068.651629315632	673.487075828175	
92	17.613000000000	924.473888374524	1006.310617920175	434.085941731535	1089.555997724767	1431.475345867509	259.605610933485	1195.238940404668	1366.616690253934	421.008934456995	1109.441525410236	1438.851965962666	595.245552659234	1073.349596874763	1493.596326568472	415.835196563894	1144.048217728320	937.478101529954	557.982566138159	1143.104777792914	959.101572837132	285.073356203090	1182.787093109313	733.064716151722	543.593199658745	1098.422810554697	625.640703170655	604.222675802860	1183.431899913449	563.674038145977	536.386253702927	1167.269102770900	452.024237045504	557.110175990817	1206.773628992254	759.410900161854	318.222807506941	1131.616123859541	634.693446875608	258.010757109377	1222.503882836137	565.918045854642	324.812921448676	1229.867361038977	495.805254220761	335.489600139482	1204.169268243973	420.815264212852	328.842456226315	1119.511890388325	303.441748364390	278.703800793320	1170.338299932249	194.702728788091	352.211783414083	1078.415270366332	393.550737100058	558.193272973077	948.577294320537	377.129931969864	611.600508267017	918.821120831342	271.279521751081	562.407809329273	713.733864998782	248.367794044662	520.610064049531	863.091227485675	155.285614845161	573.034781420423	751.490763115936	173.968339074116	594.366549129689	900.912560013840	34.422615340499	596.461865447727	1044.318137446530	38.818761775078	393.907796179234	1118.551364886899	36.491848310073	313.293585549123	1201.569784355947	97.173400099300	341.781422452893	1330.158586118997	44.732278048069	313.160402190090	1016.510705424043	1084.604351906773	151.487602453600	1046.996443454068	825.484980959679	160.977856317990	1135.499762561954	1092.252058860901	716.660263582004	1381.085791977074	1047.772728949957	674.593767108094	
93	17.624571428571	923.376474673444	1006.970165144728	432.066472788424	1090.609971912970	1432.357506542161	258.203794723214	1194.957713110330	1367.359712015649	420.376332753207	1107.809644587393	1439.319851094828	594.148937261248	1073.326763829845	1494.504474006594	414.381270004275	1143.147498846382	938.555339544623	556.496410254489	1142.328982612495	959.949736037704	283.489481825210	1187.894730398241	737.042605075032	541.251269345333	1107.973661572302	627.611071663295	603.061425599770	1194.228420912739	567.795563358101	534.403297765253	1180.787178075188	455.028999942033	555.542899328414	1204.058075816122	758.424192633106	315.612955324971	1126.649522117903	634.868929455629	256.484460936498	1216.620382568757	564.914797566789	323.036841645984	1222.973818150222	494.980878410815	333.968901232987	1196.962331236926	420.257396822682	327.588475172882	1111.627696466063	303.249595643318	277.785435067065	1161.765374696352	194.411086004277	351.687891953497	1091.073367804125	396.603883582610	556.769022919791	960.839799703374	382.450450545977	610.190000490599	929.132739928682	277.249780420453	561.033282087970	724.150045774626	259.294901130953	519.454974121692	870.986513364601	161.835753753940	571.271396255728	759.963296555667	183.663666620685	593.170691266740	905.611043273406	37.610861004448	595.009312812580	1035.009262192802	38.869245307334	393.747959960124	1109.237450120373	36.434556536037	313.173985878719	1192.351489637071	97.049409823437	341.614435719075	1320.916271252267	44.360057853024	313.054014449070	1027.283910636595	1083.951120112663	146.923720063228	1069.596032905501	826.349897731146	154.794955975509	1122.452472156998	1091.052528906720	713.817572988607	1364.724722841708	1026.168999265026	675.765764283506	
94	17.636142857143	922.153489014164	1007.701155831957	430.106763599701	1091.521871253640	1433.244593791223	256.945576769037	1194.537422196996	1368.096528238005	419.871082858267	1106.084747635252	1439.779563889482	593.177251614215	1073.218413620574	1495.422539330941	413.063617834225	1142.091420619405	939.714813894087	555.143635534633	1141.484461088216	960.840681178073	282.014482298311	1192.614826838942	741.406680387296	538.767048910490	1117.260937359082	630.128779703146	601.948935782479	1204.639504251347	572.536148726138	532.447890901024	1194.184953711250	458.786284063441	554.026716353669	1201.206705876867	757.505020606493	313.283592606123	1121.549004002594	635.104888112391	255.122342886276	1210.539276281575	563.945130431429	321.475125193604	1215.861860795495	494.206558598612	332.700145366874	1189.588912430859	419.785480514506	326.508791876066	1103.635999337920	303.126665305510	276.962224524656	1153.151946555844	194.187365796626	351.229233143264	1103.975934237287	400.075955163732	555.389538490758	973.466664870038	387.428001651843	608.768448259576	940.466960882555	282.718048098320	559.605033288679	735.579192193300	267.984831231982	518.301075472796	880.737184764734	167.719811484096	569.297070293614	770.238580675474	191.557537460341	591.887263572799	913.376468003438	41.302427754710	593.183640157939	1025.701367688214	38.931154469487	393.579497110955	1099.927701109969	36.396321658734	313.053667675320	1183.122943914038	96.954133872357	341.445896676171	1311.656479947322	44.065614337066	312.939180584348	1038.501493538426	1083.641472554117	142.439893941693	1092.767865805333	828.127300244469	148.908813234627	1109.889013427573	1090.245314685217	710.906419041113	1346.824723522704	1004.169426017776	676.965507624288	
